<svg xmlns="http://www.w3.org/2000/svg" xmlns:xlink="http://www.w3.org/1999/xlink" version="1.1" width="413px" height="633px" viewBox="-0.5 -0.5 413 633"><defs/><g><rect x="196" y="366" width="200" height="180" rx="27" ry="27" fill="#d5e8d4" stroke="#000000" stroke-dasharray="3 3" pointer-events="all"/><path d="M 192 66 L 192 89.63" fill="none" stroke="#000000" stroke-miterlimit="10" pointer-events="stroke"/><path d="M 192 94.88 L 188.5 87.88 L 192 89.63 L 195.5 87.88 Z" fill="#000000" stroke="#000000" stroke-miterlimit="10" pointer-events="all"/><path d="M 144 16 L 250 16 L 250 66 L 144 66 L 144 56 L 134 56 L 134 46 L 144 46 L 144 36 L 134 36 L 134 26 L 144 26 Z" fill="#ffffff" stroke="#000000" stroke-miterlimit="10" pointer-events="all"/><path d="M 144 26 L 154 26 L 154 36 L 144 36 M 144 46 L 154 46 L 154 56 L 144 56" fill="none" stroke="#000000" stroke-miterlimit="10" pointer-events="all"/><g fill="#000000" font-family="Helvetica" text-anchor="middle" font-size="12px"><text x="201.5" y="33.5">App Framework</text></g><path d="M 192 146 L 192 179.63" fill="none" stroke="#000000" stroke-miterlimit="10" pointer-events="stroke"/><path d="M 192 184.88 L 188.5 177.88 L 192 179.63 L 195.5 177.88 Z" fill="#000000" stroke="#000000" stroke-miterlimit="10" pointer-events="all"/><path d="M 144 96 L 250 96 L 250 146 L 144 146 L 144 136 L 134 136 L 134 126 L 144 126 L 144 116 L 134 116 L 134 106 L 144 106 Z" fill="#ffffff" stroke="#000000" stroke-miterlimit="10" pointer-events="all"/><path d="M 144 106 L 154 106 L 154 116 L 144 116 M 144 126 L 154 126 L 154 136 L 144 136" fill="none" stroke="#000000" stroke-miterlimit="10" pointer-events="all"/><g fill="#000000" font-family="Helvetica" text-anchor="middle" font-size="12px"><text x="201.5" y="113.5">CameraService</text></g><path d="M 159 316 L 159 346 L 88 346 L 88 369.63" fill="none" stroke="#000000" stroke-miterlimit="10" pointer-events="stroke"/><path d="M 88 374.88 L 84.5 367.88 L 88 369.63 L 91.5 367.88 Z" fill="#000000" stroke="#000000" stroke-miterlimit="10" pointer-events="all"/><path d="M 225 316 L 225 346 L 293 346 L 293 369.63" fill="none" stroke="#000000" stroke-miterlimit="10" pointer-events="stroke"/><path d="M 293 374.88 L 289.5 367.88 L 293 369.63 L 296.5 367.88 Z" fill="#000000" stroke="#000000" stroke-miterlimit="10" pointer-events="all"/><path d="M 192 236 L 192 259.63" fill="none" stroke="#000000" stroke-miterlimit="10" pointer-events="stroke"/><path d="M 192 264.88 L 188.5 257.88 L 192 259.63 L 195.5 257.88 Z" fill="#000000" stroke="#000000" stroke-miterlimit="10" pointer-events="all"/><path d="M 144 186 L 250 186 L 250 236 L 144 236 L 144 226 L 134 226 L 134 216 L 144 216 L 144 206 L 134 206 L 134 196 L 144 196 Z" fill="#ffffff" stroke="#000000" stroke-miterlimit="10" pointer-events="all"/><path d="M 144 196 L 154 196 L 154 206 L 144 206 M 144 216 L 154 216 L 154 226 L 144 226" fill="none" stroke="#000000" stroke-miterlimit="10" pointer-events="all"/><g fill="#000000" font-family="Helvetica" text-anchor="middle" font-size="12px"><text x="201.5" y="203.5">HIDL</text></g><path d="M 88 426 L 88 469.63" fill="none" stroke="#000000" stroke-miterlimit="10" pointer-events="stroke"/><path d="M 88 474.88 L 84.5 467.88 L 88 469.63 L 91.5 467.88 Z" fill="#000000" stroke="#000000" stroke-miterlimit="10" pointer-events="all"/><path d="M 26 376 L 160 376 L 160 426 L 26 426 L 26 416 L 16 416 L 16 406 L 26 406 L 26 396 L 16 396 L 16 386 L 26 386 Z" fill="#ffffff" stroke="#000000" stroke-miterlimit="10" pointer-events="all"/><path d="M 26 386 L 36 386 L 36 396 L 26 396 M 26 406 L 36 406 L 36 416 L 26 416" fill="none" stroke="#000000" stroke-miterlimit="10" pointer-events="all"/><g fill="#000000" font-family="Helvetica" text-anchor="middle" font-size="12px"><text x="97.5" y="393.5">provider@2.4-legacy</text><text x="97.5" y="407.5">"legacy/0"</text></g><path d="M 293 426 L 293 469.63" fill="none" stroke="#000000" stroke-miterlimit="10" pointer-events="stroke"/><path d="M 293 474.88 L 289.5 467.88 L 293 469.63 L 296.5 467.88 Z" fill="#000000" stroke="#000000" stroke-miterlimit="10" pointer-events="all"/><path d="M 230 376 L 366 376 L 366 426 L 230 426 L 230 416 L 220 416 L 220 406 L 230 406 L 230 396 L 220 396 L 220 386 L 230 386 Z" fill="#ffffff" stroke="#000000" stroke-miterlimit="10" pointer-events="all"/><path d="M 230 386 L 240 386 L 240 396 L 230 396 M 230 406 L 240 406 L 240 416 L 230 416" fill="none" stroke="#000000" stroke-miterlimit="10" pointer-events="all"/><g fill="#000000" font-family="Helvetica" text-anchor="middle" font-size="12px"><text x="302.5" y="393.5">provider@2.4-external</text><text x="302.5" y="407.5">"external/0"</text></g><path d="M 230 476 L 366 476 L 366 526 L 230 526 L 230 516 L 220 516 L 220 506 L 230 506 L 230 496 L 220 496 L 220 486 L 230 486 Z" fill="#ffffff" stroke="#000000" stroke-miterlimit="10" pointer-events="all"/><path d="M 230 486 L 240 486 L 240 496 L 230 496 M 230 506 L 240 506 L 240 516 L 230 516" fill="none" stroke="#000000" stroke-miterlimit="10" pointer-events="all"/><g fill="#000000" font-family="Helvetica" text-anchor="middle" font-size="12px"><text x="302.5" y="493.5">camera.device@3.4-external-impl</text></g><path d="M 88 526 L 88 559.63" fill="none" stroke="#000000" stroke-miterlimit="10" pointer-events="stroke"/><path d="M 88 564.88 L 84.5 557.88 L 88 559.63 L 91.5 557.88 Z" fill="#000000" stroke="#000000" stroke-miterlimit="10" pointer-events="all"/><path d="M 26 476 L 160 476 L 160 526 L 26 526 L 26 516 L 16 516 L 16 506 L 26 506 L 26 496 L 16 496 L 16 486 L 26 486 Z" fill="#ffffff" stroke="#000000" stroke-miterlimit="10" pointer-events="all"/><path d="M 26 486 L 36 486 L 36 496 L 26 496 M 26 506 L 36 506 L 36 516 L 26 516" fill="none" stroke="#000000" stroke-miterlimit="10" pointer-events="all"/><g fill="#000000" font-family="Helvetica" text-anchor="middle" font-size="12px"><text x="97.5" y="493.5">camera.device@3.4-impl</text></g><path d="M 48 566 L 138 566 L 138 616 L 48 616 L 48 606 L 38 606 L 38 596 L 48 596 L 48 586 L 38 586 L 38 576 L 48 576 Z" fill="#ffffff" stroke="#000000" stroke-miterlimit="10" pointer-events="all"/><path d="M 48 576 L 58 576 L 58 586 L 48 586 M 48 596 L 58 596 L 58 606 L 48 606" fill="none" stroke="#000000" stroke-miterlimit="10" pointer-events="all"/><g fill="#000000" font-family="Helvetica" text-anchor="middle" font-size="12px"><text x="97.5" y="583.5">camera.qcom</text></g><path d="M 136 266 L 258 266 L 258 316 L 136 316 L 136 306 L 126 306 L 126 296 L 136 296 L 136 286 L 126 286 L 126 276 L 136 276 Z" fill="#ffffff" stroke="#000000" stroke-miterlimit="10" pointer-events="all"/><path d="M 136 276 L 146 276 L 146 286 L 136 286 M 136 296 L 146 296 L 146 306 L 136 306" fill="none" stroke="#000000" stroke-miterlimit="10" pointer-events="all"/><g fill="#000000" font-family="Helvetica" text-anchor="middle" font-size="12px"><text x="201.5" y="283.5">provider@2.4-impl</text></g></g></svg>